<svg width="64" height="64" viewBox="0 0 64 64" xmlns="http://www.w3.org/2000/svg">
  <!-- Blue Figure (Left) -->
  <path d="M 12 20 Q 12 8 20 8 Q 28 8 28 20 Q 28 32 20 32 Q 12 32 12 20 Z" 
        fill="url(#blueGradient)" opacity="0.9"/>
  <path d="M 16 20 Q 16 12 20 12 Q 24 12 24 20 Q 24 28 20 28 Q 16 28 16 20 Z" 
        fill="#64b5f6" opacity="0.6"/>
  
  <!-- Green Figure (Right) -->
  <path d="M 36 20 Q 36 8 44 8 Q 52 8 52 20 Q 52 32 44 32 Q 36 32 36 20 Z" 
        fill="url(#greenGradient)" opacity="0.9"/>
  <path d="M 40 20 Q 40 12 44 12 Q 48 12 48 20 Q 48 28 44 28 Q 40 28 40 20 Z" 
        fill="#81c784" opacity="0.6"/>
  
  <!-- Reflection -->
  <path d="M 12 36 Q 12 44 20 44 Q 28 44 28 36 Q 28 28 20 28 Q 12 28 12 36 Z" 
        fill="url(#blueGradient)" opacity="0.2"/>
  <path d="M 36 36 Q 36 44 44 44 Q 52 44 52 36 Q 52 28 44 28 Q 36 28 36 36 Z" 
        fill="url(#greenGradient)" opacity="0.2"/>
  
  <!-- Gradients -->
  <defs>
    <linearGradient id="blueGradient" x1="0%" y1="0%" x2="100%" y2="100%">
      <stop offset="0%" style="stop-color:#64b5f6;stop-opacity:1" />
      <stop offset="50%" style="stop-color:#4285f4;stop-opacity:1" />
      <stop offset="100%" style="stop-color:#1a73e8;stop-opacity:1" />
    </linearGradient>
    <linearGradient id="greenGradient" x1="0%" y1="0%" x2="100%" y2="100%">
      <stop offset="0%" style="stop-color:#81c784;stop-opacity:1" />
      <stop offset="50%" style="stop-color:#66bb6a;stop-opacity:1" />
      <stop offset="100%" style="stop-color:#34a853;stop-opacity:1" />
    </linearGradient>
  </defs>
</svg>

